<svg xmlns="http://www.w3.org/2000/svg" viewBox="14.27 19.707 361.142 305.76" xmlns:bx="https://boxy-svg.com">
  <defs>
    <bx:export>
      <bx:file format="svg" excluded="true" normalization="{&quot;removeAnimations&quot;:true,&quot;removeBoxySVGMetadata&quot;:true,&quot;removeForeignMetadata&quot;:true}" width="361.142" height="305.76"/>
    </bx:export>
  </defs>
  <g id="svg_2" transform="matrix(1, 0, 0, 1, -1.13062, 90.232735)">
    <g id="svg_3" transform="matrix(1, 0, 0, 1, 0.548847, -0.548847)">
      <circle id="svg_4" fill="oklch(89% 0.2 80)" r="80" cy="81" cx="193"/>
      <line id="svg_5" stroke-linecap="round" stroke-width="8" stroke="oklch(89% 0.2 80)" y2="-59" x2="193" y1="-29" x1="193"/>
      <line id="svg_6" stroke-linecap="round" stroke-width="8" stroke="oklch(89% 0.2 80)" y2="-19" x2="283" y1="11" x1="263"/>
      <line id="svg_7" stroke-linecap="round" stroke-width="8" stroke="oklch(89% 0.2 80)" y2="81" x2="333" y1="81" x1="303"/>
      <line id="svg_8" stroke-linecap="round" stroke-width="8" stroke="oklch(89% 0.2 80)" y2="181" x2="283" y1="151" x1="263"/>
      <line id="svg_9" stroke-linecap="round" stroke-width="8" stroke="oklch(89% 0.2 80)" y2="181" x2="103" y1="151" x1="123"/>
      <line id="svg_10" stroke-linecap="round" stroke-width="8" stroke="oklch(89% 0.2 80)" y2="81" x2="53" y1="81" x1="83"/>
      <line id="svg_11" stroke-linecap="round" stroke-width="8" stroke="oklch(89% 0.2 80)" y2="-19" x2="103" y1="11" x1="123"/>
      <line id="svg_12" stroke-linecap="round" stroke-width="8" stroke="oklch(89% 0.2 80)" y2="178.651" x2="193.274" y1="208.651" x1="193.274"/>
    </g>
    <g id="svg_13">
      <path id="svg_14" stroke-linecap="round" stroke-width="4" stroke="oklch(52% 0.14 138)" fill="none" d="m163,71q10,-15 20,0"/>
      <path id="svg_15" stroke-linecap="round" stroke-width="4" stroke="oklch(52% 0.14 138)" fill="none" d="m203,71q10,-15 20,0"/>
      <circle id="svg_16" fill="oklch(72% 0.17 25)" r="12" cy="91" cx="158"/>
      <circle id="svg_17" fill="oklch(72% 0.17 25)" r="12" cy="91" cx="228"/>
      <path id="svg_18" stroke-linecap="round" stroke-width="4" stroke="oklch(52% 0.14 138)" fill="none" d="m173,101q20,20 40,0"/>
    </g>
  </g>
  <path id="svg_19" stroke-width="2" stroke="oklch(92% 0.05 65)" opacity="0.9" fill="#FFFFFF" d="M 144.414 245.599 C 131.334 230.793 114.984 227.091 95.363 234.494 C 82.282 223.39 69.202 223.39 56.122 234.494 C 43.041 227.091 33.231 230.793 26.691 245.599 C 20.15 260.404 23.421 271.508 36.501 278.912 C 29.961 293.717 33.231 304.821 46.311 312.224 C 59.392 319.628 72.472 317.777 85.552 306.672 C 98.633 317.777 111.712 317.777 124.794 306.672 C 137.873 314.076 149.32 312.224 159.13 301.12 C 168.94 290.016 170.574 278.912 164.034 267.807 C 160.764 253.002 154.224 245.599 144.414 245.599"/>
  <path id="svg_20" stroke-width="2" stroke="oklch(92% 0.05 65)" opacity="0.9" fill="#FFFFFF" d="M 363.478 246.651 C 349.308 231.804 335.138 228.092 320.969 235.515 C 313.883 220.668 303.256 216.957 289.087 224.379 C 274.918 216.957 264.29 220.668 257.205 235.515 C 250.12 250.363 253.663 261.499 267.832 268.922 C 260.747 283.77 264.29 294.905 278.46 302.328 C 292.629 309.752 306.799 307.896 320.969 296.761 C 335.138 307.896 347.537 306.041 358.164 291.193 C 365.249 276.346 367.02 261.499 363.478 246.651"/>
</svg>